# xmcd
#
# Track frame offsets:
#	150
#	20400
#	36057
#	63432
#	82841
#	97065
#	113671
#	127429
#	141869
#	159081
#	179987
#	201735
#	223056
#	241190
#	258047
#	278761
#	301481
#
# Disc length: 4246 seconds
#
# Revision: 1
# Processed by: cddbd v1.5.2PL0 Copyright (c) Steve Scherf et al.
# Submitted via: audiograbber 1.83.01
#
DISCID=f9109411
DTITLE=Various Artist - Passione - A Christmas Collection
DYEAR=2011
DGENRE=Christmas
TTITLE0=Il Divo - Amazing Grance
TTITLE1=Malena Ernman - Bred Dina Vingar
TTITLE2=Peter Jöback - Decembernatt (Halleluja)
TTITLE3=Carola - O, Helga Natt
TTITLE4=Mario Frangoulis and George Misalidis - Santa Lucia
TTITLE5=Helen Sjöholm and Stefan Nilsson - Gabriellas Sång
TTITLE6=José Careras and Plácido Domingo - Carol Of The Drum (The Little Drummer 
TTITLE6=Boy)
TTITLE7=Susan Boyle - How Great Thou Art
TTITLE8=Priests, The - Silent Night
TTITLE9=Annie Lennox - The First Noel
TTITLE10=Paul Potts - Ave Maria
TTITLE11=Céline Dion - Adeste Fideles (Oh Come All Ye Faithful)
TTITLE12=Westlife - You Raise Me Up
TTITLE13=Sissel - Koppången
TTITLE14=Tommy Körberg - You'll Never Walk Alone
TTITLE15=Sarah Dawn Finer - I'll Be Your Wish Tonight
TTITLE16=Kurt Nilsen and Kringkastingsorkestret - Auld Lang Syne
EXTD=
EXTT0=
EXTT1=
EXTT2=
EXTT3=
EXTT4=
EXTT5=
EXTT6=
EXTT7=
EXTT8=
EXTT9=
EXTT10=
EXTT11=
EXTT12=
EXTT13=
EXTT14=
EXTT15=
EXTT16=
PLAYORDER=
